# xmcd
#
# Track frame offsets:
#	150
#	14130
#	31487
#	56632
#	95461
#	111317
#	129100
#	143917
#	168069
#	197678
#
# Disc length: 2834 seconds
#
# Revision: 1
# Processed by: cddbd v1.4PL0 Copyright (c) Steve Scherf et al.
# Submitted via: audiograbber 1.80
#
DISCID=850b100a
DTITLE=Chris Beard - Born To Play The Blues
DYEAR=1900
DGENRE=
TTITLE0=Ten Toes Up
TTITLE1=High Cost Of Living
TTITLE2=Silver Spoon
TTITLE3=Somebody's Sleeping
TTITLE4=The Girl Is Ready
TTITLE5=I Still Love You
TTITLE6=Party Tonight
TTITLE7=You're The One
TTITLE8=It's Over
TTITLE9=Born To Play The Blues
EXTD=
EXTT0=
EXTT1=
EXTT2=
EXTT3=
EXTT4=
EXTT5=
EXTT6=
EXTT7=
EXTT8=
EXTT9=
PLAYORDER=
